<svg xmlns="http://www.w3.org/2000/svg" viewBox="0 0 100 100" fill="none">
  <rect width="100" height="100" rx="20" fill="#1e3a5f"/>
  <circle cx="68" cy="32" r="8" fill="#60a5fa"/>
  <path d="M18 62c0-14 10-26 24-28l4-2h18c2 0 4 0 6 1 6 2 10 8 10 14v2c0 4-2 8-6 10l2 8c1 3-1 6-4 6H28c-3 0-5-3-4-6l2-8c-5-3-8-9-8-15v-2z" fill="#60a5fa"/>
  <ellipse cx="30" cy="70" rx="4" ry="3" fill="#1e3a5f"/>
  <ellipse cx="50" cy="72" rx="4" ry="3" fill="#1e3a5f"/>
  <path d="M60 46h8c2 0 4 2 4 4v4c0 2-2 4-4 4h-8" stroke="#1e3a5f" stroke-width="2.5" stroke-linecap="round"/>
  <path d="M28 52 Q38 46 48 52" stroke="#1e3a5f" stroke-width="2.5" stroke-linecap="round" fill="none"/>
</svg>
